<?xml version="1.0" encoding="utf-8" standalone="no"?>
<!DOCTYPE svg PUBLIC "-//W3C//DTD SVG 1.1//EN"
  "http://www.w3.org/Graphics/SVG/1.1/DTD/svg11.dtd">
<svg xmlns:xlink="http://www.w3.org/1999/xlink" width="458.694785pt" height="182.064234pt" viewBox="0 0 458.694785 182.064234" xmlns="http://www.w3.org/2000/svg" version="1.1">
 <metadata>
  <rdf:RDF xmlns:dc="http://purl.org/dc/elements/1.1/" xmlns:cc="http://creativecommons.org/ns#" xmlns:rdf="http://www.w3.org/1999/02/22-rdf-syntax-ns#">
   <cc:Work>
    <dc:type rdf:resource="http://purl.org/dc/dcmitype/StillImage"/>
    <dc:date>2026-07-01T14:41:16.706983</dc:date>
    <dc:format>image/svg+xml</dc:format>
    <dc:creator>
     <cc:Agent>
      <dc:title>Matplotlib v3.10.9, https://matplotlib.org/</dc:title>
     </cc:Agent>
    </dc:creator>
   </cc:Work>
  </rdf:RDF>
 </metadata>
 <defs>
  <style type="text/css">*{stroke-linejoin: round; stroke-linecap: butt}</style>
 </defs>
 <g id="figure_1">
  <g id="patch_1">
   <path d="M 0 182.064234 
L 458.694785 182.064234 
L 458.694785 0 
L 0 0 
z
" style="fill: #ffffff"/>
  </g>
  <g id="axes_1">
   <g id="patch_2">
    <path d="M 52.339876 151.875734 
L 225.954785 151.875734 
L 225.954785 19.387734 
L 52.339876 19.387734 
z
" style="fill: #ffffff"/>
   </g>
   <g id="patch_3">
    <path d="M 60.231463 151.875734 
L 119.418364 151.875734 
L 119.418364 45.885334 
L 60.231463 45.885334 
z
" clip-path="url(#p8b73f13966)" style="fill: #c1352c"/>
   </g>
   <g id="patch_4">
    <path d="M 158.876298 151.875734 
L 218.063199 151.875734 
L 218.063199 151.875734 
L 158.876298 151.875734 
z
" clip-path="url(#p8b73f13966)" style="fill: #2a9d5c"/>
   </g>
   <g id="matplotlib.axis_1">
    <g id="xtick_1">
     <g id="line2d_1">
      <defs>
       <path id="ma454d6af5b" d="M 0 0 
L 0 3.5 
" style="stroke: #000000; stroke-width: 0.8"/>
      </defs>
      <g>
       <use xlink:href="#ma454d6af5b" x="89.824914" y="151.875734" style="stroke: #000000; stroke-width: 0.8"/>
      </g>
     </g>
     <g id="text_1">
      <text style="font-size: 8px; font-family: 'Arial', 'DejaVu Sans', 'Liberation Sans', sans-serif; text-anchor: middle" x="89.824914" y="164.601984" transform="rotate(-0 89.824914 164.601984)">ML</text>
     </g>
    </g>
    <g id="xtick_2">
     <g id="line2d_2">
      <g>
       <use xlink:href="#ma454d6af5b" x="188.469748" y="151.875734" style="stroke: #000000; stroke-width: 0.8"/>
      </g>
     </g>
     <g id="text_2">
      <text style="font-size: 8px; font-family: 'Arial', 'DejaVu Sans', 'Liberation Sans', sans-serif" transform="translate(162.012248 164.601984)">ACI 440.1R-15</text>
      <text style="font-size: 8px; font-family: 'Arial', 'DejaVu Sans', 'Liberation Sans', sans-serif" transform="translate(172.244123 173.180484)">(fallback)</text>
     </g>
    </g>
   </g>
   <g id="matplotlib.axis_2">
    <g id="ytick_1">
     <g id="line2d_3">
      <defs>
       <path id="m599725ad72" d="M 0 0 
L -3.5 0 
" style="stroke: #000000; stroke-width: 0.8"/>
      </defs>
      <g>
       <use xlink:href="#m599725ad72" x="52.339876" y="151.875734" style="stroke: #000000; stroke-width: 0.8"/>
      </g>
     </g>
     <g id="text_3">
      <text style="font-size: 8px; font-family: 'Arial', 'DejaVu Sans', 'Liberation Sans', sans-serif; text-anchor: end" x="45.339876" y="154.738859" transform="rotate(-0 45.339876 154.738859)">0</text>
     </g>
    </g>
    <g id="ytick_2">
     <g id="line2d_4">
      <g>
       <use xlink:href="#m599725ad72" x="52.339876" y="130.346434" style="stroke: #000000; stroke-width: 0.8"/>
      </g>
     </g>
     <g id="text_4">
      <text style="font-size: 8px; font-family: 'Arial', 'DejaVu Sans', 'Liberation Sans', sans-serif; text-anchor: end" x="45.339876" y="133.209559" transform="rotate(-0 45.339876 133.209559)">5</text>
     </g>
    </g>
    <g id="ytick_3">
     <g id="line2d_5">
      <g>
       <use xlink:href="#m599725ad72" x="52.339876" y="108.817134" style="stroke: #000000; stroke-width: 0.8"/>
      </g>
     </g>
     <g id="text_5">
      <text style="font-size: 8px; font-family: 'Arial', 'DejaVu Sans', 'Liberation Sans', sans-serif; text-anchor: end" x="45.339876" y="111.680259" transform="rotate(-0 45.339876 111.680259)">10</text>
     </g>
    </g>
    <g id="ytick_4">
     <g id="line2d_6">
      <g>
       <use xlink:href="#m599725ad72" x="52.339876" y="87.287834" style="stroke: #000000; stroke-width: 0.8"/>
      </g>
     </g>
     <g id="text_6">
      <text style="font-size: 8px; font-family: 'Arial', 'DejaVu Sans', 'Liberation Sans', sans-serif; text-anchor: end" x="45.339876" y="90.150959" transform="rotate(-0 45.339876 90.150959)">15</text>
     </g>
    </g>
    <g id="ytick_5">
     <g id="line2d_7">
      <g>
       <use xlink:href="#m599725ad72" x="52.339876" y="65.758534" style="stroke: #000000; stroke-width: 0.8"/>
      </g>
     </g>
     <g id="text_7">
      <text style="font-size: 8px; font-family: 'Arial', 'DejaVu Sans', 'Liberation Sans', sans-serif; text-anchor: end" x="45.339876" y="68.621659" transform="rotate(-0 45.339876 68.621659)">20</text>
     </g>
    </g>
    <g id="ytick_6">
     <g id="line2d_8">
      <g>
       <use xlink:href="#m599725ad72" x="52.339876" y="44.229234" style="stroke: #000000; stroke-width: 0.8"/>
      </g>
     </g>
     <g id="text_8">
      <text style="font-size: 8px; font-family: 'Arial', 'DejaVu Sans', 'Liberation Sans', sans-serif; text-anchor: end" x="45.339876" y="47.092359" transform="rotate(-0 45.339876 47.092359)">25</text>
     </g>
    </g>
    <g id="ytick_7">
     <g id="line2d_9">
      <g>
       <use xlink:href="#m599725ad72" x="52.339876" y="22.699934" style="stroke: #000000; stroke-width: 0.8"/>
      </g>
     </g>
     <g id="text_9">
      <text style="font-size: 8px; font-family: 'Arial', 'DejaVu Sans', 'Liberation Sans', sans-serif; text-anchor: end" x="45.339876" y="25.563059" transform="rotate(-0 45.339876 25.563059)">30</text>
     </g>
    </g>
    <g id="text_10">
     <text style="font-size: 9px; font-family: 'Arial', 'DejaVu Sans', 'Liberation Sans', sans-serif; text-anchor: middle" x="30.548158" y="85.631734" transform="rotate(-90 30.548158 85.631734)">% unconservative (out-of-env.)</text>
    </g>
   </g>
   <g id="patch_5">
    <path d="M 52.339876 151.875734 
L 52.339876 19.387734 
" style="fill: none; stroke: #000000; stroke-width: 0.8; stroke-linejoin: miter; stroke-linecap: square"/>
   </g>
   <g id="patch_6">
    <path d="M 225.954785 151.875734 
L 225.954785 19.387734 
" style="fill: none; stroke: #000000; stroke-width: 0.8; stroke-linejoin: miter; stroke-linecap: square"/>
   </g>
   <g id="patch_7">
    <path d="M 52.339876 151.875734 
L 225.954785 151.875734 
" style="fill: none; stroke: #000000; stroke-width: 0.8; stroke-linejoin: miter; stroke-linecap: square"/>
   </g>
   <g id="patch_8">
    <path d="M 52.339876 19.387734 
L 225.954785 19.387734 
" style="fill: none; stroke: #000000; stroke-width: 0.8; stroke-linejoin: miter; stroke-linecap: square"/>
   </g>
   <g id="text_11">
    <text style="font-size: 8px; font-family: 'Arial', 'DejaVu Sans', 'Liberation Sans', sans-serif; text-anchor: middle" x="89.824914" y="41.579474" transform="rotate(-0 89.824914 41.579474)">25%</text>
   </g>
   <g id="text_12">
    <text style="font-size: 8px; font-family: 'Arial', 'DejaVu Sans', 'Liberation Sans', sans-serif; text-anchor: middle" x="188.469748" y="147.569874" transform="rotate(-0 188.469748 147.569874)">0%</text>
   </g>
   <g id="text_13">
    <text style="font-weight: 700; font-size: 11px; font-family: 'Arial', 'DejaVu Sans', 'Liberation Sans', sans-serif; text-anchor: start" x="7.2" y="16.737974" transform="rotate(-0 7.2 16.737974)">A</text>
   </g>
   <g id="text_14">
    <text style="font-size: 8.5px; font-family: 'Arial', 'DejaVu Sans', 'Liberation Sans', sans-serif; text-anchor: middle" x="139.147331" y="13.387734" transform="rotate(-0 139.147331 13.387734)">Safety of large-member estimate</text>
   </g>
  </g>
  <g id="axes_2">
   <g id="patch_9">
    <path d="M 277.879876 151.875734 
L 451.494785 151.875734 
L 451.494785 19.387734 
L 277.879876 19.387734 
z
" style="fill: #ffffff"/>
   </g>
   <g id="FillBetweenPolyCollection_1">
    <path d="M 330.984359 145.853553 
L 293.169146 145.853553 
L 291.824671 144.63695 
L 290.572211 143.420348 
L 289.43446 142.203745 
L 288.430966 140.987143 
L 287.577322 139.770541 
L 286.884573 138.553938 
L 286.358854 137.337336 
L 286.001301 136.120733 
L 285.808213 134.904131 
L 285.771463 133.687529 
L 285.879113 132.470926 
L 286.116185 131.254324 
L 286.46553 130.037722 
L 286.908741 128.821119 
L 287.427042 127.604517 
L 288.002112 126.387914 
L 288.616797 125.171312 
L 289.255688 123.95471 
L 289.905545 122.738107 
L 290.555572 121.521505 
L 291.19754 120.304902 
L 291.825778 119.0883 
L 292.437054 117.871698 
L 293.030363 116.655095 
L 293.606632 115.438493 
L 294.168387 114.22189 
L 294.719371 113.005288 
L 295.264141 111.788686 
L 295.807664 110.572083 
L 296.354909 109.355481 
L 296.910466 108.138879 
L 297.478194 106.922276 
L 298.060921 105.705674 
L 298.660204 104.489071 
L 299.27617 103.272469 
L 299.907438 102.055867 
L 300.551139 100.839264 
L 301.203024 99.622662 
L 301.857662 98.406059 
L 302.508709 97.189457 
L 303.149238 95.972855 
L 303.772096 94.756252 
L 304.370278 93.53965 
L 304.937282 92.323048 
L 305.467427 91.106445 
L 305.956113 89.889843 
L 306.40001 88.67324 
L 306.79717 87.456638 
L 307.147051 86.240036 
L 307.450475 85.023433 
L 307.709515 83.806831 
L 307.927329 82.590228 
L 308.107956 81.373626 
L 308.256099 80.157024 
L 308.376893 78.940421 
L 308.475685 77.723819 
L 308.55783 76.507216 
L 308.628516 75.290614 
L 308.692604 74.074012 
L 308.754514 72.857409 
L 308.818122 71.640807 
L 308.886693 70.424205 
L 308.962834 69.207602 
L 309.048462 67.991 
L 309.144798 66.774397 
L 309.25237 65.557795 
L 309.371038 64.341193 
L 309.50003 63.12459 
L 309.637998 61.907988 
L 309.783083 60.691385 
L 309.933005 59.474783 
L 310.085149 58.258181 
L 310.236679 57.041578 
L 310.384646 55.824976 
L 310.526101 54.608373 
L 310.65821 53.391771 
L 310.778361 52.175169 
L 310.88426 50.958566 
L 310.974018 49.741964 
L 311.04622 48.525362 
L 311.099978 47.308759 
L 311.134967 46.092157 
L 311.15144 44.875554 
L 311.150228 43.658952 
L 311.132714 42.44235 
L 311.100795 41.225747 
L 311.05682 40.009145 
L 311.003516 38.792542 
L 310.943893 37.57594 
L 310.881138 36.359338 
L 310.818499 35.142735 
L 310.759165 33.926133 
L 310.706141 32.709531 
L 310.662132 31.492928 
L 310.629442 30.276326 
L 310.609879 29.059723 
L 310.604696 27.843121 
L 310.614552 26.626519 
L 310.639504 25.409916 
L 313.514 25.409916 
L 313.514 25.409916 
L 313.538952 26.626519 
L 313.548809 27.843121 
L 313.543626 29.059723 
L 313.524063 30.276326 
L 313.491372 31.492928 
L 313.447364 32.709531 
L 313.39434 33.926133 
L 313.335006 35.142735 
L 313.272367 36.359338 
L 313.209612 37.57594 
L 313.149989 38.792542 
L 313.096685 40.009145 
L 313.05271 41.225747 
L 313.02079 42.44235 
L 313.003276 43.658952 
L 313.002064 44.875554 
L 313.018538 46.092157 
L 313.053527 47.308759 
L 313.107285 48.525362 
L 313.179487 49.741964 
L 313.269245 50.958566 
L 313.375144 52.175169 
L 313.495295 53.391771 
L 313.627404 54.608373 
L 313.768859 55.824976 
L 313.916825 57.041578 
L 314.068356 58.258181 
L 314.2205 59.474783 
L 314.370421 60.691385 
L 314.515507 61.907988 
L 314.653475 63.12459 
L 314.782467 64.341193 
L 314.901135 65.557795 
L 315.008707 66.774397 
L 315.105042 67.991 
L 315.190671 69.207602 
L 315.266811 70.424205 
L 315.335383 71.640807 
L 315.398991 72.857409 
L 315.460901 74.074012 
L 315.524989 75.290614 
L 315.595674 76.507216 
L 315.67782 77.723819 
L 315.776612 78.940421 
L 315.897405 80.157024 
L 316.045549 81.373626 
L 316.226176 82.590228 
L 316.443989 83.806831 
L 316.70303 85.023433 
L 317.006454 86.240036 
L 317.356335 87.456638 
L 317.753495 88.67324 
L 318.197392 89.889843 
L 318.686078 91.106445 
L 319.216223 92.323048 
L 319.783227 93.53965 
L 320.381408 94.756252 
L 321.004266 95.972855 
L 321.644795 97.189457 
L 322.295843 98.406059 
L 322.950481 99.622662 
L 323.602366 100.839264 
L 324.246067 102.055867 
L 324.877335 103.272469 
L 325.493301 104.489071 
L 326.092584 105.705674 
L 326.675311 106.922276 
L 327.243039 108.138879 
L 327.798596 109.355481 
L 328.345841 110.572083 
L 328.889364 111.788686 
L 329.434134 113.005288 
L 329.985117 114.22189 
L 330.546873 115.438493 
L 331.123142 116.655095 
L 331.71645 117.871698 
L 332.327727 119.0883 
L 332.955965 120.304902 
L 333.597932 121.521505 
L 334.24796 122.738107 
L 334.897817 123.95471 
L 335.536708 125.171312 
L 336.151393 126.387914 
L 336.726463 127.604517 
L 337.244764 128.821119 
L 337.687975 130.037722 
L 338.03732 131.254324 
L 338.274392 132.470926 
L 338.382042 133.687529 
L 338.345292 134.904131 
L 338.152204 136.120733 
L 337.794651 137.337336 
L 337.268932 138.553938 
L 336.576182 139.770541 
L 335.722539 140.987143 
L 334.719045 142.203745 
L 333.581294 143.420348 
L 332.328834 144.63695 
L 330.984359 145.853553 
z
" clip-path="url(#p281cf6af15)" style="fill: #c1352c; fill-opacity: 0.55"/>
   </g>
   <g id="FillBetweenPolyCollection_2">
    <path d="M 429.570486 136.034093 
L 405.025333 136.034093 
L 403.617592 135.480672 
L 402.198549 134.927251 
L 400.791575 134.37383 
L 399.420459 133.820409 
L 398.108368 133.266987 
L 396.876776 132.713566 
L 395.744434 132.160145 
L 394.726446 131.606724 
L 393.833562 131.053302 
L 393.071722 130.499881 
L 392.441933 129.94646 
L 391.940486 129.393039 
L 391.559526 128.839618 
L 391.287916 128.286196 
L 391.112339 127.732775 
L 391.018546 127.179354 
L 390.99262 126.625933 
L 391.022159 126.072511 
L 391.097265 125.51909 
L 391.211248 124.965669 
L 391.360986 124.412248 
L 391.546915 123.858827 
L 391.772658 123.305405 
L 392.044328 122.751984 
L 392.369583 122.198563 
L 392.756527 121.645142 
L 393.212553 121.09172 
L 393.743261 120.538299 
L 394.35154 119.984878 
L 395.03691 119.431457 
L 395.795193 118.878036 
L 396.618543 118.324614 
L 397.495835 117.771193 
L 398.413375 117.217772 
L 399.355858 116.664351 
L 400.307476 116.110929 
L 401.253064 115.557508 
L 402.179158 115.004087 
L 403.074877 114.450666 
L 403.932515 113.897245 
L 404.747814 113.343823 
L 405.519892 112.790402 
L 406.250848 112.236981 
L 406.945107 111.68356 
L 407.608595 111.130138 
L 408.247831 110.576717 
L 408.869063 110.023296 
L 409.477508 109.469875 
L 410.076799 108.916454 
L 410.668656 108.363032 
L 411.252806 107.809611 
L 411.827127 107.25619 
L 412.387967 106.702769 
L 412.930596 106.149347 
L 413.449714 105.595926 
L 413.939947 105.042505 
L 414.396303 104.489084 
L 414.814527 103.935663 
L 415.191349 103.382241 
L 415.524616 102.82882 
L 415.813327 102.275399 
L 416.05758 101.721978 
L 416.258463 101.168556 
L 416.417914 100.615135 
L 416.538581 100.061714 
L 416.623672 99.508293 
L 416.676845 98.954872 
L 416.702105 98.40145 
L 416.70372 97.848029 
L 416.686148 97.294608 
L 416.653956 96.741187 
L 416.611735 96.187765 
L 416.563979 95.634344 
L 416.51496 95.080923 
L 416.468569 94.527502 
L 416.428156 93.974081 
L 416.396373 93.420659 
L 416.375039 92.867238 
L 416.365052 92.313817 
L 416.366343 91.760396 
L 416.377917 91.206975 
L 416.397944 90.653553 
L 416.423935 90.100132 
L 416.45296 89.546711 
L 416.481914 88.99329 
L 416.507792 88.439868 
L 416.527957 87.886447 
L 416.540383 87.333026 
L 416.54383 86.779605 
L 416.537958 86.226184 
L 416.523364 85.672762 
L 416.501524 85.119341 
L 416.474667 84.56592 
L 416.44558 84.012499 
L 416.417367 83.459077 
L 416.393181 82.905656 
L 416.375958 82.352235 
L 416.368178 81.798814 
L 416.371672 81.245393 
L 418.224147 81.245393 
L 418.224147 81.245393 
L 418.227641 81.798814 
L 418.219861 82.352235 
L 418.202638 82.905656 
L 418.178452 83.459077 
L 418.150239 84.012499 
L 418.121152 84.56592 
L 418.094295 85.119341 
L 418.072454 85.672762 
L 418.05786 86.226184 
L 418.051989 86.779605 
L 418.055436 87.333026 
L 418.067861 87.886447 
L 418.088027 88.439868 
L 418.113905 88.99329 
L 418.142858 89.546711 
L 418.171884 90.100132 
L 418.197875 90.653553 
L 418.217902 91.206975 
L 418.229476 91.760396 
L 418.230767 92.313817 
L 418.220779 92.867238 
L 418.199446 93.420659 
L 418.167663 93.974081 
L 418.12725 94.527502 
L 418.080859 95.080923 
L 418.03184 95.634344 
L 417.984084 96.187765 
L 417.941862 96.741187 
L 417.909671 97.294608 
L 417.892098 97.848029 
L 417.893713 98.40145 
L 417.918973 98.954872 
L 417.972147 99.508293 
L 418.057238 100.061714 
L 418.177904 100.615135 
L 418.337356 101.168556 
L 418.538239 101.721978 
L 418.782491 102.275399 
L 419.071203 102.82882 
L 419.40447 103.382241 
L 419.781292 103.935663 
L 420.199516 104.489084 
L 420.655872 105.042505 
L 421.146105 105.595926 
L 421.665222 106.149347 
L 422.207852 106.702769 
L 422.768692 107.25619 
L 423.343013 107.809611 
L 423.927163 108.363032 
L 424.51902 108.916454 
L 425.118311 109.469875 
L 425.726756 110.023296 
L 426.347988 110.576717 
L 426.987224 111.130138 
L 427.650712 111.68356 
L 428.344971 112.236981 
L 429.075926 112.790402 
L 429.848005 113.343823 
L 430.663304 113.897245 
L 431.520942 114.450666 
L 432.416661 115.004087 
L 433.342755 115.557508 
L 434.288342 116.110929 
L 435.239961 116.664351 
L 436.182444 117.217772 
L 437.099984 117.771193 
L 437.977276 118.324614 
L 438.800626 118.878036 
L 439.558908 119.431457 
L 440.244279 119.984878 
L 440.852558 120.538299 
L 441.383266 121.09172 
L 441.839292 121.645142 
L 442.226236 122.198563 
L 442.551491 122.751984 
L 442.823161 123.305405 
L 443.048904 123.858827 
L 443.234833 124.412248 
L 443.38457 124.965669 
L 443.498553 125.51909 
L 443.57366 126.072511 
L 443.603199 126.625933 
L 443.577272 127.179354 
L 443.48348 127.732775 
L 443.307903 128.286196 
L 443.036292 128.839618 
L 442.655333 129.393039 
L 442.153886 129.94646 
L 441.524097 130.499881 
L 440.762257 131.053302 
L 439.869373 131.606724 
L 438.851385 132.160145 
L 437.719042 132.713566 
L 436.487451 133.266987 
L 435.17536 133.820409 
L 433.804244 134.37383 
L 432.39727 134.927251 
L 430.978227 135.480672 
L 429.570486 136.034093 
z
" clip-path="url(#p281cf6af15)" style="fill: #2a9d5c; fill-opacity: 0.55"/>
   </g>
   <g id="matplotlib.axis_3">
    <g id="xtick_3">
     <g id="line2d_10">
      <g>
       <use xlink:href="#ma454d6af5b" x="312.076752" y="151.875734" style="stroke: #000000; stroke-width: 0.8"/>
      </g>
     </g>
     <g id="text_15">
      <text style="font-size: 8px; font-family: 'Arial', 'DejaVu Sans', 'Liberation Sans', sans-serif; text-anchor: middle" x="312.076752" y="164.601984" transform="rotate(-0 312.076752 164.601984)">ML</text>
     </g>
    </g>
    <g id="xtick_4">
     <g id="line2d_11">
      <g>
       <use xlink:href="#ma454d6af5b" x="417.297909" y="151.875734" style="stroke: #000000; stroke-width: 0.8"/>
      </g>
     </g>
     <g id="text_16">
      <text style="font-size: 8px; font-family: 'Arial', 'DejaVu Sans', 'Liberation Sans', sans-serif; text-anchor: middle" x="417.297909" y="164.601984" transform="rotate(-0 417.297909 164.601984)">ACI 440.1R-15</text>
     </g>
    </g>
   </g>
   <g id="matplotlib.axis_4">
    <g id="ytick_8">
     <g id="line2d_12">
      <g>
       <use xlink:href="#m599725ad72" x="277.879876" y="138.54338" style="stroke: #000000; stroke-width: 0.8"/>
      </g>
     </g>
     <g id="text_17">
      <text style="font-size: 8px; font-family: 'Arial', 'DejaVu Sans', 'Liberation Sans', sans-serif; text-anchor: end" x="270.879876" y="141.406505" transform="rotate(-0 270.879876 141.406505)">1</text>
     </g>
    </g>
    <g id="ytick_9">
     <g id="line2d_13">
      <g>
       <use xlink:href="#m599725ad72" x="277.879876" y="116.086623" style="stroke: #000000; stroke-width: 0.8"/>
      </g>
     </g>
     <g id="text_18">
      <text style="font-size: 8px; font-family: 'Arial', 'DejaVu Sans', 'Liberation Sans', sans-serif; text-anchor: end" x="270.879876" y="118.949748" transform="rotate(-0 270.879876 118.949748)">2</text>
     </g>
    </g>
    <g id="ytick_10">
     <g id="line2d_14">
      <g>
       <use xlink:href="#m599725ad72" x="277.879876" y="93.629865" style="stroke: #000000; stroke-width: 0.8"/>
      </g>
     </g>
     <g id="text_19">
      <text style="font-size: 8px; font-family: 'Arial', 'DejaVu Sans', 'Liberation Sans', sans-serif; text-anchor: end" x="270.879876" y="96.49299" transform="rotate(-0 270.879876 96.49299)">3</text>
     </g>
    </g>
    <g id="ytick_11">
     <g id="line2d_15">
      <g>
       <use xlink:href="#m599725ad72" x="277.879876" y="71.173107" style="stroke: #000000; stroke-width: 0.8"/>
      </g>
     </g>
     <g id="text_20">
      <text style="font-size: 8px; font-family: 'Arial', 'DejaVu Sans', 'Liberation Sans', sans-serif; text-anchor: end" x="270.879876" y="74.036232" transform="rotate(-0 270.879876 74.036232)">4</text>
     </g>
    </g>
    <g id="ytick_12">
     <g id="line2d_16">
      <g>
       <use xlink:href="#m599725ad72" x="277.879876" y="48.716349" style="stroke: #000000; stroke-width: 0.8"/>
      </g>
     </g>
     <g id="text_21">
      <text style="font-size: 8px; font-family: 'Arial', 'DejaVu Sans', 'Liberation Sans', sans-serif; text-anchor: end" x="270.879876" y="51.579474" transform="rotate(-0 270.879876 51.579474)">5</text>
     </g>
    </g>
    <g id="ytick_13">
     <g id="line2d_17">
      <g>
       <use xlink:href="#m599725ad72" x="277.879876" y="26.259592" style="stroke: #000000; stroke-width: 0.8"/>
      </g>
     </g>
     <g id="text_22">
      <text style="font-size: 8px; font-family: 'Arial', 'DejaVu Sans', 'Liberation Sans', sans-serif; text-anchor: end" x="270.879876" y="29.122717" transform="rotate(-0 270.879876 29.122717)">6</text>
     </g>
    </g>
    <g id="text_23">
     <!-- $V_{\rm test}/V_{\rm pred}$ (out-of-env.) -->
     <g transform="translate(259.641126 132.611734) rotate(-90)">
      <text>
       <tspan x="0" y="-0.4375" style="font-style: oblique; font-size: 9px; font-family: 'DejaVu Sans'">V</tspan>
       <tspan x="21.533643" y="-0.4375" style="font-style: oblique; font-size: 9px; font-family: 'DejaVu Sans'">V</tspan>
       <tspan x="6.156738" y="1.039062" style="font-size: 6.3px; font-family: 'DejaVu Sans'">t</tspan>
       <tspan x="8.626904" y="1.039062" style="font-size: 6.3px; font-family: 'DejaVu Sans'">e</tspan>
       <tspan x="12.502881" y="1.039062" style="font-size: 6.3px; font-family: 'DejaVu Sans'">s</tspan>
       <tspan x="15.785156" y="1.039062" style="font-size: 6.3px; font-family: 'DejaVu Sans'">t</tspan>
       <tspan x="27.690381" y="1.039062" style="font-size: 6.3px; font-family: 'DejaVu Sans'">p</tspan>
       <tspan x="31.689404" y="1.039062" style="font-size: 6.3px; font-family: 'DejaVu Sans'">r</tspan>
       <tspan x="34.279541" y="1.039062" style="font-size: 6.3px; font-family: 'DejaVu Sans'">e</tspan>
       <tspan x="38.155518" y="1.039062" style="font-size: 6.3px; font-family: 'DejaVu Sans'">d</tspan>
       <tspan x="18.501416" y="-0.4375" style="font-size: 9px; font-family: 'DejaVu Sans'">/</tspan>
       <tspan x="42.400635" y="-0.4375" style="font-size: 9px; font-family: 'Arial'"> </tspan>
       <tspan x="44.901123" y="-0.4375" style="font-size: 9px; font-family: 'Arial'">(</tspan>
       <tspan x="47.898193" y="-0.4375" style="font-size: 9px; font-family: 'Arial'">o</tspan>
       <tspan x="52.903564" y="-0.4375" style="font-size: 9px; font-family: 'Arial'">u</tspan>
       <tspan x="57.908936" y="-0.4375" style="font-size: 9px; font-family: 'Arial'">t</tspan>
       <tspan x="60.409424" y="-0.4375" style="font-size: 9px; font-family: 'Arial'">-</tspan>
       <tspan x="63.406494" y="-0.4375" style="font-size: 9px; font-family: 'Arial'">o</tspan>
       <tspan x="68.411865" y="-0.4375" style="font-size: 9px; font-family: 'Arial'">f</tspan>
       <tspan x="70.912354" y="-0.4375" style="font-size: 9px; font-family: 'Arial'">-</tspan>
       <tspan x="73.909424" y="-0.4375" style="font-size: 9px; font-family: 'Arial'">e</tspan>
       <tspan x="78.914795" y="-0.4375" style="font-size: 9px; font-family: 'Arial'">n</tspan>
       <tspan x="83.920166" y="-0.4375" style="font-size: 9px; font-family: 'Arial'">v</tspan>
       <tspan x="88.420166" y="-0.4375" style="font-size: 9px; font-family: 'Arial'">.</tspan>
       <tspan x="90.920654" y="-0.4375" style="font-size: 9px; font-family: 'Arial'">)</tspan>
      </text>
     </g>
    </g>
   </g>
   <g id="LineCollection_1">
    <path d="M 298.924108 119.206412 
L 325.229397 119.206412 
" clip-path="url(#p281cf6af15)" style="fill: none; stroke: #1f77b4; stroke-width: 1.5"/>
    <path d="M 404.145265 122.785031 
L 430.450554 122.785031 
" clip-path="url(#p281cf6af15)" style="fill: none; stroke: #1f77b4; stroke-width: 1.5"/>
   </g>
   <g id="line2d_18">
    <path d="M 277.879876 138.54338 
L 451.494785 138.54338 
" clip-path="url(#p281cf6af15)" style="fill: none; stroke-dasharray: 0.8,1.32; stroke-dashoffset: 0; stroke: #000000; stroke-width: 0.8"/>
   </g>
   <g id="patch_10">
    <path d="M 277.879876 151.875734 
L 277.879876 19.387734 
" style="fill: none; stroke: #000000; stroke-width: 0.8; stroke-linejoin: miter; stroke-linecap: square"/>
   </g>
   <g id="patch_11">
    <path d="M 451.494785 151.875734 
L 451.494785 19.387734 
" style="fill: none; stroke: #000000; stroke-width: 0.8; stroke-linejoin: miter; stroke-linecap: square"/>
   </g>
   <g id="patch_12">
    <path d="M 277.879876 151.875734 
L 451.494785 151.875734 
" style="fill: none; stroke: #000000; stroke-width: 0.8; stroke-linejoin: miter; stroke-linecap: square"/>
   </g>
   <g id="patch_13">
    <path d="M 277.879876 19.387734 
L 451.494785 19.387734 
" style="fill: none; stroke: #000000; stroke-width: 0.8; stroke-linejoin: miter; stroke-linecap: square"/>
   </g>
   <g id="text_24">
    <text style="font-weight: 700; font-size: 11px; font-family: 'Arial', 'DejaVu Sans', 'Liberation Sans', sans-serif; text-anchor: start" x="232.74" y="16.737974" transform="rotate(-0 232.74 16.737974)">B</text>
   </g>
   <g id="text_25">
    <text style="font-size: 8.5px; font-family: 'Arial', 'DejaVu Sans', 'Liberation Sans', sans-serif; text-anchor: middle" x="364.687331" y="13.387734" transform="rotate(-0 364.687331 13.387734)">Bounded, conservative fallback</text>
   </g>
  </g>
 </g>
 <defs>
  <clipPath id="p8b73f13966">
   <rect x="52.339876" y="19.387734" width="173.614909" height="132.488"/>
  </clipPath>
  <clipPath id="p281cf6af15">
   <rect x="277.879876" y="19.387734" width="173.614909" height="132.488"/>
  </clipPath>
 </defs>
</svg>
